<?xml version="1.0" encoding="utf-8" ?><svg xmlns="http://www.w3.org/2000/svg" xmlns:xlink="http://www.w3.org/1999/xlink" width="2048" height="2048" viewBox="0 0 2048 2048"><path fill="white" d="M1002.64 420.432C1010.39 419.464 1031.72 419.81 1039.84 420.124C1110.97 422.946 1180.06 444.69 1239.98 483.113C1330.51 541.447 1393.72 633.779 1415.36 739.271C1438.27 849.509 1413.57 953.496 1352.49 1046.55C1370.14 1062.99 1389.43 1083.19 1406.64 1100.4L1505.66 1199.41L1564.24 1257.93C1582.88 1276.57 1615.42 1303.66 1616.01 1332C1616.56 1358.53 1591.56 1383.86 1571.63 1398.76C1527.81 1431.51 1496.2 1392.89 1467.02 1363.66L1417.38 1313.88L1251.26 1147.66C1219.48 1169.64 1184.69 1186.91 1147.96 1198.94C1042.02 1233.64 935.316 1221.88 836.704 1171.94C821.781 1164.15 810.532 1157.08 796.738 1147.66C770.297 1175.26 740.58 1203.96 713.395 1231.15C728.309 1245.96 743.575 1260.91 758.382 1275.96C775.604 1293.46 786.486 1307 767.675 1328.59C745.931 1353.54 729.648 1350.33 708.017 1327.47C693.473 1312.74 677.482 1296.85 662.638 1281.91L643.882 1300.67L678.595 1335.2C697.808 1354.35 721.856 1372.39 697.56 1398.79C674.288 1424.09 660.317 1419.04 637.773 1396.26C623.054 1381.39 607.823 1366.21 593.127 1351.42C548.527 1396.03 516.177 1442.96 457.609 1382.37C406.781 1329.79 439.988 1301.67 480.438 1261.26L533.275 1208.49C586.575 1155.17 641.386 1098.68 695.508 1046.55C654.879 985.545 630.238 920.142 625.436 846.497C618.223 740.64 653.44 636.266 723.313 556.418C796.095 473.492 893.019 427.434 1002.64 420.432ZM1038.25 1075C1179.01 1070.83 1263.96 1025.98 1277.46 874.753C1295.25 675.324 1236.73 554.376 1015.72 563.312C1014.77 563.349 1013.81 563.397 1012.86 563.456C818.765 568.463 764.619 653.333 768.19 837.498C771.794 1023.35 863.518 1078.19 1038.25 1075Z"/><path fill="white" d="M1014.94 1382.45C1017.86 1382.41 1020.79 1382.39 1023.72 1382.38C1185.11 1382.19 1341.07 1459.6 1461.33 1565.49C1500.83 1600.28 1479.91 1639.72 1448.28 1670.17C1418.31 1699.01 1389.64 1692 1360.07 1667.11C1267.23 1590.35 1157.97 1529.51 1034.66 1525.94C939.123 1524.36 856.238 1553.64 775.456 1603.71C757.126 1615.15 739.264 1627.31 721.91 1640.18C683.961 1668.14 647.871 1715.12 600.798 1671.14C557.774 1630.94 549.655 1591.89 600.28 1553.31C618.434 1539.48 636.895 1523.79 656.088 1510.91C764.862 1433.56 880.761 1386.83 1014.94 1382.45Z"/></svg>