<?xml version="1.0" encoding="utf-8" ?><svg xmlns="http://www.w3.org/2000/svg" xmlns:xlink="http://www.w3.org/1999/xlink" width="4096" height="1315" viewBox="0 0 4096 1315"><path fill="#1A1A2E" d="M552.003 426.421C580.17 425.312 611.864 425.903 640.21 425.963L781.125 426.202L1221.72 426.303L1541.69 426.028L1645.35 426.023C1665.7 426.053 1686.07 426.76 1706.86 426.984C1793.18 427.912 1833.45 527.782 1793.88 596.661C1784.68 612.673 1762.61 633.58 1748.71 647.758L1691.54 705.893L1473.22 930.74C1452.48 952.176 1431.64 973.509 1410.7 994.737C1394.74 1011.02 1374.33 1031.57 1360.3 1049.3C1390.99 1051.05 1428.59 1050.24 1459.52 1050.34C1527.8 1050.56 1596.03 1048.55 1664.38 1049.41C1685.67 1049.63 1706.96 1050.09 1728.25 1050.78C1753.71 1051.67 1783.21 1051.07 1802.53 1070C1825.12 1092.13 1830.56 1125.94 1831.13 1156C1832.69 1238.01 1815.64 1273.26 1729.5 1275.07C1674.54 1276.25 1616.37 1275.21 1561.08 1275.21L1235.95 1275.19L563.182 1276.53C524.424 1276.3 481.583 1271.85 453.449 1242.29C431.131 1218.88 422.897 1192.64 422.971 1160.91C422.354 1103.12 471.14 1067.04 508.684 1029.67C634.166 904.789 755.363 775.142 882.604 652.019C858.419 649.583 818.312 650.944 792.715 650.947L634.611 651.027C597.08 651.198 560.833 652.834 523.502 645.555C456.269 631.798 457.86 557.399 463.701 504.363C469.796 449.02 498.765 430.213 552.003 426.421ZM782.599 1049.03C813.741 1049.37 1061.45 1052.74 1070.82 1045.72C1070.98 1045.6 1071.1 1045.44 1071.25 1045.3C1108.9 1010.87 1151.72 964.726 1188.49 927.725C1279.38 835.102 1370.91 743.1 1463.06 651.728C1432.79 650.473 1400.54 650.359 1370.21 650.837C1303.17 651.894 1235.66 650.002 1168.71 651.103C1153.88 659.807 1122.83 695.527 1108.73 710.066C1066.49 753.256 1024.49 796.68 982.723 840.333L856.98 970.486C832.993 995.29 804.751 1023.06 782.599 1049.03Z"/><path fill="#1A1A2E" d="M3608.52 413.35C3849.39 398.776 4056.35 582.503 4070.42 823.408C4084.5 1064.31 3900.34 1270.89 3659.4 1284.46C3419.18 1297.99 3213.34 1114.49 3199.31 874.295C3185.28 634.098 3368.35 427.881 3608.52 413.35ZM3648.25 1068.95C3707.8 1065.37 3772.16 1057.71 3814.19 1010.18C3848.64 971.146 3856.46 917.315 3858.57 867.146C3861.47 798.344 3855.02 717.45 3799.37 669.172C3753.65 629.506 3687.58 623.105 3629.56 625.447C3571.36 627.529 3502.99 634.903 3461.44 680.387C3415.77 730.382 3413.26 808.455 3415.25 872.186C3420.14 1029.07 3505.63 1068.33 3648.25 1068.95Z"/><path fill="#1A1A2E" d="M2771.71 419.475C2862.89 416.462 2959.86 450.179 3028.87 509.62C3055.02 532.148 3100.56 571.643 3091.69 610.607C3081.38 655.868 3034.34 714.018 2987.45 725.433C2956.13 731.654 2901.2 689.455 2873.58 674.05C2851.67 661.72 2827.8 653.249 2803.01 649.007C2751.52 640.286 2698.69 652.546 2656.31 683.05C2609.22 716.763 2584.18 758.876 2575.34 815.637C2566.31 868.188 2578.15 932.279 2610.28 975.76C2670.72 1057.56 2796.14 1076.66 2882.22 1025.81C2913.34 1007.43 2948.97 966.86 2988.01 973.649C3021.91 979.546 3055.07 1018.83 3073.97 1045.3C3103.12 1091.79 3103.19 1129.98 3063.17 1170.25C2996.5 1236.73 2886.87 1278.52 2794.01 1280.59C2559.93 1285.81 2346.72 1110.25 2345.13 868.739C2344.33 747.334 2368.01 650.775 2453.43 560.797C2538.86 470.806 2648.85 423.382 2771.71 419.475Z"/><path fill="#1A1A2E" d="M149.693 419.416C149.879 419.387 150.066 419.358 150.253 419.329C187.723 416.9 233.996 419.162 264.695 443.47C285.758 460.148 289.576 480.149 292.251 504.744C298.109 558.613 296.495 612.759 296.421 666.848L296.167 884.867L295.997 1068.65C295.981 1105.4 297.728 1140.25 294.111 1177.02C287.295 1246.29 256.681 1267.95 191.247 1274.87C151.29 1277.71 104.067 1274.52 71.6447 1248.34C49.8343 1230.72 45.6295 1203.01 43.4552 1176.3C40.1658 1135.88 41.1142 1092.23 41.1512 1051.51L41.2415 858.717L40.8839 653.667C40.7189 596.189 37.3284 535.462 48.941 479.104C58.3834 433.278 110.681 422.79 149.693 419.416Z"/><path fill="#1A1A2E" d="M2078.98 426.446C2080.3 426.384 2081.62 426.347 2082.95 426.335C2151.06 425.16 2205.87 443.725 2206.57 519.878C2206.72 536.414 2207.8 554.267 2208.1 571.029L2209.69 647.462C2210.74 765.822 2210.87 884.188 2210.1 1002.55C2210.03 1036.07 2210.21 1069.6 2210.65 1103.12C2211.09 1138.91 2211.98 1164.16 2206.69 1199.94C2197.07 1265.05 2145.09 1274.46 2087.51 1275.26C2049 1275.21 2006.52 1272.63 1975.41 1247.06C1960.85 1235.09 1961.32 1213.4 1959.48 1195.69C1953.83 1141.43 1957.28 1086.73 1957.96 1032.35L1958.9 830.255C1959.23 775.942 1958.96 721.626 1958.09 667.319C1956.85 605.451 1951.97 540.071 1962.99 478.924C1971.12 433.752 2043.37 428.482 2078.98 426.446Z"/><path fill="#1A1A2E" d="M150.618 27.4274C182.902 25.3033 239.61 29.8548 265.214 51.5668C289.634 72.274 294.514 95.6584 297.557 126.375C300.92 160.319 301.19 228.316 279.041 256.203C259.201 281.182 218.34 289.61 188.24 292.639C148.338 295.058 100.089 290.423 67.2353 264.343C45.9253 246.365 42.1919 205.422 40.5006 179.125C34.3873 84.071 47.9606 33.9276 150.618 27.4274Z"/><path fill="#1A1A2E" d="M2083.55 37.4609C2116.89 35.9392 2166.54 42.859 2191.69 66.7488C2212.88 88.3067 2216.32 121.23 2216.89 149.229C2218.98 252.075 2184.25 274.295 2086.43 275.849C2053.68 275.851 2009.53 275.546 1982.42 251.247C1942.52 215.482 1947.7 138.782 1957.74 91.5008C1961.98 71.5004 1987.2 51.9956 2006.71 47.1489C2031.73 40.9317 2057.17 38.358 2083.55 37.4609Z"/></svg>