<svg viewBox="0 0 2048 2048" fill="none" xmlns="http://www.w3.org/2000/svg">
  <!-- IzzIco Icon V1 - FINAL VECTORIZED Dark Version -->
  <!-- Exported from Recraft with true boolean merge -->
  <!-- Only 2 paths: Top assembly + Bust (no hidden geometry) -->

  <!-- TOP ASSEMBLY: Circle + Loupe Handle + Key Handle + Teeth (unified) -->
  <path d="M999.072 416.57c76.224-7.066 167.56 19.312 231.248 60.754 88.93 57.87 146.516 142.762 168.29 246.482 14.556 69.334 8.736 136.522-14.444 203.36-4.356 12.56-12.658 33.864-19.648 44.546 39.644 26.212 86.268 62.858 125.924 91.572l74.286 54.218c17.62 12.798 62.506 41.722 71.196 61.922 8.226 19.12-12.034 48.476-24.22 63.438-24.62 30.23-44.516 24.07-73.94 6.568-.18.312-1.25 2.202-1.54 2.572-13.132 16.552-26.418 47.76-47.802 54.164-12.616 4.494-37.032-17.054-37.386-28.464-.574-18.556 26.526-49.952 37.178-64.148-10.498-10.034-40.372-29.624-53.868-40.166-10.426 15.284-32.792 51.254-50.616 56.93-13.098 4.172-39.122-17.888-38.14-29.934 1.434-17.576 29.236-49.946 39.946-63.806a8333 8333 0 0 1-92.3-65.142c-21.134 25.196-68.442 56.832-97.636 71.3a371.4 371.4 0 0 1-125.38 38.068c-110.57 13.102-206.686-18.236-293.338-86.546a10343 10343 0 0 1-151.052 131.848l-50.382 44.192c-15.936 13.944-44.24 41.862-65.436 40.512-27.18-1.732-67.88-46.358-65.034-74.372.874-8.614 4.848-18.124 10.846-24.224 26.014-26.454 55.4-49.774 83.522-73.956l157.838-136.652a385.9 385.9 0 0 1-56.478-172.466 380.83 380.83 0 0 1 89.704-277.89c69.462-81.168 162.62-126.552 268.662-134.68m43.456 613.002c127.238-10.82 221.444-122.998 210.108-250.192-11.338-127.192-123.9-220.94-251.046-209.084-126.414 11.786-219.506 123.562-208.234 250.022 11.272 126.462 122.666 220.01 249.172 209.254" fill="#0a0a12"/>

  <!-- BUST: Curve + Caps (unified) -->
  <path d="M997.132 1329.418c167.164-14.518 334.602 95.17 443.044 213.032 33.24 36.128 6.142 67.612-23.514 92.882-47.56 40.526-76.626-8.266-109.024-37.588-71.49-67.41-158.69-126.074-258.87-136.01-106.036-9.974-208.618 45.208-285.592 113.678a1684 1684 0 0 0-39.376 36.48c-28.916 27.734-53.236 58.552-93.216 23.094-26.518-23.516-59.152-56.102-26.59-91.05 105.278-112.996 235.284-202.64 393.138-214.518" fill="#0a0a12"/>
</svg>
