<?xml version="1.0" encoding="utf-8"?>
<svg xmlns="http://www.w3.org/2000/svg" viewBox="0 0 5800 1880">
  <!-- IzzIco Trademark - Final Vectorized (Recraft) - White Version -->
  <!-- Use on dark or gradient backgrounds -->

  <!-- ZZ letters -->
  <path fill="white" d="M458.657 901.495C467.047 879.904 488.833 873.185 510.189 872.861C545.255 872.329 580.42 872.79 615.503 872.82L826.103 872.966L1062.96 872.774C1103.77 872.736 1145.17 872.532 1186.02 872.883C1193.24 872.945 1209.19 874.865 1215.87 877.801C1255.25 895.134 1265.69 952.514 1236.97 983.655C1219.97 1002.08 1202.26 1019.57 1184.76 1037.41L1041.41 1185.05C1029.35 1197.69 995.658 1230.88 986.946 1242.45C1064.92 1244.59 1143.95 1240.18 1221.83 1244C1262.42 1246 1267.37 1285.83 1266.35 1317.98C1264.77 1379.77 1229.88 1376.4 1182.03 1376.45L1116.79 1376.43L916.499 1376.43L639.475 1376.59L548.75 1376.63C513.953 1376.64 471.322 1382.8 446.742 1354.48C439.805 1346.48 432.775 1333 431.713 1322.49C430.483 1309.8 430.324 1300.05 434.353 1287.91C441.707 1266.39 466.326 1246.16 482.549 1229.98L539.367 1172.58C592.884 1118.34 648.886 1059.35 703.732 1006.67C687.561 1005.58 667.245 1006.14 650.617 1006.13L559.846 1006.09C532.884 1006.07 510.301 1007.9 484.105 1001.51C474.83 997.16 466.487 992.033 461.574 982.634C449.765 960.036 452.538 925.078 458.657 901.495ZM644.243 1242.25C660.739 1242.59 811.132 1243.53 814.585 1240.94C830.296 1226.65 845.516 1210.07 860.563 1194.97C923.154 1132.16 984.793 1068.64 1048.08 1006.52C998.064 1005.19 947.529 1006.8 897.47 1006.14C889.52 1006.03 881.286 1006.02 873.354 1006.25C867.318 1008.32 848.23 1030.5 842.449 1036.44C818.666 1060.62 795.064 1084.97 771.643 1109.5L684.445 1199.78C671.686 1213.12 656.095 1228.44 644.243 1242.25Z"/>

  <!-- O letter -->
  <path fill="white" d="M2590.49 1169.34C2586.63 1184.96 2583.85 1203.38 2577.43 1218.48C2548.83 1285.22 2504.09 1332.59 2437.33 1362.35C2280.22 1432.38 2090.78 1317.8 2078.78 1146.46C2076.14 1108.65 2080.79 1066.14 2095.05 1030.31C2121.67 964.455 2173.12 911.708 2238.3 883.458C2297.45 858.224 2372.3 857.752 2431.88 882.076C2492.55 906.882 2541.86 953.317 2570.25 1012.39C2574.44 1021.15 2577.7 1029.24 2580.45 1038.54C2581.86 1043.33 2583.21 1049.51 2585.23 1053.91C2593.87 1081.44 2597.14 1140.78 2590.49 1169.34ZM2345.5 1250.06C2415.49 1244.76 2467.99 1183.8 2462.86 1113.79C2457.73 1043.78 2396.9 991.132 2326.88 996.093C2256.62 1001.07 2203.75 1062.15 2208.9 1132.41C2214.05 1202.66 2275.26 1255.38 2345.5 1250.06Z"/>

  <!-- c letter -->
  <path fill="white" d="M2014.43 1289.09C2012.99 1290.79 2012.67 1292.38 2011.66 1294.28C1992.17 1330.76 1943.56 1354.45 1905.67 1367.39C1779.45 1410.47 1624.33 1336.45 1583.27 1208.31C1564.03 1148.26 1567.1 1064.42 1595.99 1008.43C1657.92 888.385 1815.29 831.558 1937.01 895.126C1960.6 907.455 2005.17 940.488 2013.7 966.793C2022.59 994.25 1981.44 1042.61 1955.51 1049.77C1934.08 1055.6 1902.25 1029.09 1883.03 1018.81C1821.52 985.903 1752.38 1007.06 1718.22 1067.66C1702.56 1106.27 1701.4 1142.55 1718.21 1181.34C1722.16 1188.06 1725.64 1195.54 1730.64 1201.64C1768.36 1247.7 1837.54 1257.76 1888.74 1229.22C1909.33 1217.75 1929.81 1191.52 1955.74 1198.13C1976.73 1203.47 2006.01 1237.45 2012.26 1256.79C2016.45 1267.78 2017.12 1277.54 2014.43 1289.09Z"/>

  <!-- First I letter -->
  <path fill="white" d="M211.326 895.532C223.915 878.6 236.015 872.87 257.106 869.996C288.47 865.724 340.811 866.524 351.274 904.797C357.275 940.342 355.754 973.712 355.88 1009.77L355.767 1155.83L355.613 1262.01C355.429 1290.28 359.625 1338.85 338.932 1359.51C318.102 1380.62 265.255 1379.68 239.546 1370.59C238.804 1369.81 234.144 1367.77 232.925 1367.14C224.797 1362.93 216.32 1356.5 212.263 1348.11C207.49 1338.24 205.31 1316.77 204.942 1306.08C204.162 1283.38 204.49 1260.08 204.49 1237.4L204.514 1115.3L204.179 994.493C204.238 961.585 202.221 927.337 211.326 895.532Z"/>

  <!-- Second I letter -->
  <path fill="white" d="M1474.33 1350.33C1460.87 1381.25 1413.05 1378.28 1385.75 1373.47C1376.72 1371.88 1356.59 1360.1 1355.23 1351.74C1348.53 1310.68 1351.43 1265.25 1351.83 1223.54L1352.17 1107.1C1352.28 1077.45 1352.17 1047.8 1351.83 1018.15C1351.29 982.56 1348.28 934.783 1355.21 899.228C1358.68 890.227 1370.03 881.13 1378.51 878.643C1407.68 870.095 1461.19 866.305 1474.41 901.686C1480.17 915.181 1479.37 949.569 1479.73 965.402C1482.28 1078.58 1479.62 1191.83 1481.28 1305.04C1481.43 1315.01 1478.38 1342.45 1474.33 1350.33Z"/>

  <!-- First I dot -->
  <path fill="white" d="M208.3 670.014C220.645 629.654 286.78 633.206 318.929 641.055C332.397 644.343 347.614 656.702 351.678 670.159C359.551 694.525 359.669 737.646 351.252 761.902C336.412 806.713 217.025 803.291 209.435 759.855C202.877 735.201 200.302 694.252 208.3 670.014Z"/>

  <!-- Second I dot -->
  <path fill="white" d="M1369.87 650.3C1398.82 639.004 1466.62 634.108 1478.69 672.509C1481.31 681.001 1483.42 688.154 1483.74 697.07C1484.51 718.785 1485.83 756.767 1466.85 771.906C1449.94 785.405 1416.42 784.214 1396.26 782.645C1341.63 778.392 1346.28 718.857 1350.36 679.158C1351.29 670.214 1358.58 658.094 1366.26 653.355C1368.3 652.091 1368.29 652.183 1369.87 650.3Z"/>
</svg>
