<?xml version="1.0" encoding="utf-8" ?><svg xmlns="http://www.w3.org/2000/svg" xmlns:xlink="http://www.w3.org/1999/xlink" width="2048" height="2048" viewBox="0 0 2048 2048"><path fill="#1A1A2E" d="M1003.09 420.418C1010.23 419.373 1033.06 419.803 1040.71 420.117C1110.37 423.097 1178.04 444.175 1237.07 481.274C1326.89 538.079 1390.46 628.256 1413.77 731.949C1439.81 847.464 1414.85 948.046 1352.51 1046.57C1371.45 1064.35 1390.38 1083.97 1408.81 1102.44L1504.94 1198.6L1562.81 1256.33C1581.92 1275.4 1615.05 1303.63 1616.02 1332.11C1617.12 1364.2 1570.05 1410.96 1538.62 1411.22C1510.72 1411.45 1483.29 1379.97 1464.42 1361.05L1417.04 1313.5L1251.27 1147.71C1121.34 1235.2 978.847 1239.89 839.135 1173.19C823.216 1164.97 811.569 1157.53 796.728 1147.7C769.225 1175.77 741.456 1203.57 713.423 1231.11C728.203 1245.77 776.325 1287.36 777.302 1306.55C777.764 1315.62 771.825 1323.97 765.997 1330.39C759.274 1337.79 750.091 1345.84 739.557 1345.97C733.201 1346.05 727.198 1343.05 722.02 1339.63C706.457 1329.34 676.958 1296.42 662.597 1281.93L643.913 1300.62C663.145 1319.99 683.85 1338.33 701.071 1359.39C722.508 1385.62 679.195 1431.49 652.52 1409.06C631.482 1391.37 612.48 1371.01 593.088 1351.44C572.139 1372.62 540.3 1412.19 508.512 1410.94C474.832 1409.5 431.532 1364.12 432.073 1330.86C432.487 1305.44 465.195 1276.46 482.535 1259.11L532.885 1208.75C586.598 1154.89 640.666 1099.1 695.492 1046.6C655.519 985.76 631.191 923.306 625.704 850.257C617.507 744.268 651.894 639.383 721.253 558.822C795.273 472.838 890.964 428.845 1003.09 420.418ZM1044.25 1010.62C1092.66 1007.4 1143.78 999.532 1177.54 960.897C1203.84 930.9 1212.13 890.238 1214.75 851.485C1219.06 787.653 1215.76 710.311 1163.82 665.193C1122.81 629.566 1056.83 623.537 1004.41 627.415C956.209 630.606 904.174 638.811 870.428 677.016C839.843 711.757 833.311 761.108 832.039 805.792C830.417 862.812 836.108 931.442 881.637 971.644C921.366 1006.73 992.415 1014.36 1044.25 1010.62Z"/><path fill="#1A1A2E" d="M1015.24 1382.45C1019.22 1382.37 1023.19 1382.34 1027.17 1382.36C1189.18 1383.22 1347.08 1462.7 1465.36 1569.53C1499.9 1603.29 1477.1 1642.74 1448.65 1669.89C1418.77 1698.4 1390.42 1692.36 1360.96 1667.85C1267.03 1589.68 1159.11 1530.63 1034.84 1525.96C943.099 1525.05 866.165 1549.81 787.41 1596.49C766.259 1609.13 745.698 1622.73 725.792 1637.26C687.566 1664.93 648.529 1715.94 601.258 1671.63C560.259 1633.38 549.09 1594.82 596.957 1555.98C655.312 1508.64 714.052 1468.58 782.471 1437.25C858.404 1402.48 932.263 1386.12 1015.24 1382.45Z"/></svg>