<?xml version="1.0" encoding="utf-8" ?><svg xmlns="http://www.w3.org/2000/svg" xmlns:xlink="http://www.w3.org/1999/xlink" width="4096" height="1315" viewBox="0 0 4096 1315"><path fill="white" d="M552.003 426.421C580.171 425.312 611.863 425.903 640.21 425.962L781.145 426.201L1221.63 426.303L1541.58 426.028L1645.35 426.023C1665.7 426.053 1686.07 426.757 1706.86 426.984C1793.2 427.925 1833.44 527.764 1793.88 596.661C1784.79 612.483 1763.16 633.015 1749.45 647.006L1692.24 705.185L1473.95 929.98C1453.17 951.476 1432.27 972.868 1411.27 994.154C1395.16 1010.59 1374.47 1031.4 1360.3 1049.3C1390.96 1051.06 1428.61 1050.24 1459.52 1050.34C1527.8 1050.56 1596.03 1048.55 1664.38 1049.41C1685.67 1049.63 1706.96 1050.09 1728.25 1050.78C1753.71 1051.67 1783.21 1051.07 1802.53 1070C1825.12 1092.13 1830.56 1125.94 1831.13 1156C1832.69 1238.01 1815.64 1273.26 1729.5 1275.07C1671.77 1276.3 1610.58 1275.21 1552.46 1275.2L1209.99 1275.2L719.938 1275.6L618.195 1275.73C564.642 1276.19 494.748 1284.67 453.449 1242.29C431.986 1220.27 421.973 1191.13 422.975 1160.67C423.753 1137.02 429.587 1116.89 443.959 1097.73C462.746 1071.44 486.598 1051.95 508.97 1029.39C536.044 1002.08 563.117 974.795 590.099 947.454C687.56 848.698 782.856 748.541 882.602 652.019C858.42 649.583 818.317 650.944 792.723 650.947L634.427 651.028C596.952 651.2 560.774 652.826 523.5 645.555C456.269 631.795 457.86 557.401 463.701 504.363C469.796 449.02 498.766 430.213 552.003 426.421ZM782.597 1049.03C813.735 1049.37 1061.45 1052.74 1070.82 1045.72C1070.98 1045.6 1071.1 1045.44 1071.24 1045.3C1108.86 1010.94 1151.78 964.661 1188.5 927.71C1279.39 835.092 1370.92 743.096 1463.06 651.728C1432.79 650.473 1400.54 650.358 1370.21 650.837C1303.17 651.896 1235.66 650 1168.71 651.103C1153.89 659.802 1122.83 695.531 1108.73 710.066C1066.49 753.256 1024.49 796.679 982.724 840.333L857.513 969.936C833.351 994.921 804.915 1022.88 782.597 1049.03Z"/><path fill="white" d="M3608.52 413.349C3849.39 398.775 4056.35 582.503 4070.42 823.408C4084.5 1064.31 3900.34 1270.89 3659.4 1284.46C3419.18 1297.99 3213.34 1114.49 3199.31 874.295C3185.28 634.098 3368.35 427.881 3608.52 413.349ZM3648.25 1068.95C3707.8 1065.37 3772.16 1057.71 3814.19 1010.18C3848.64 971.146 3856.46 917.315 3858.57 867.146C3861.47 798.344 3855.02 717.45 3799.37 669.172C3753.65 629.505 3687.58 623.105 3629.56 625.447C3571.36 627.529 3502.99 634.903 3461.44 680.387C3415.77 730.382 3413.26 808.455 3415.25 872.186C3420.14 1029.07 3505.63 1068.33 3648.25 1068.95Z"/><path fill="white" d="M2771.71 419.475C2864.31 417.272 2958.64 449.291 3029.11 509.824C3055.74 532.701 3098.95 569.691 3091.71 609.736C3083.8 653.44 3031.54 716.525 2987.45 725.449C2956.14 731.787 2900.71 689.019 2872.83 673.635C2851.12 661.526 2827.51 653.198 2803.01 649.007C2751.52 640.285 2698.69 652.546 2656.31 683.05C2609.22 716.764 2584.18 758.875 2575.34 815.636C2566.31 868.188 2578.15 932.279 2610.28 975.76C2670.72 1057.56 2796.14 1076.66 2882.22 1025.81C2913.34 1007.43 2948.97 966.859 2988.01 973.649C3021.92 979.547 3055.07 1018.83 3073.97 1045.3C3103.13 1091.84 3103.23 1129.78 3063.22 1170.17C2996.82 1236.61 2887.12 1278.37 2794.52 1280.58C2560.49 1286.14 2346.8 1110.53 2345.15 869.038C2344.31 747.434 2367.94 650.849 2453.42 560.794C2538.8 470.845 2648.91 423.356 2771.71 419.475Z"/><path fill="white" d="M149.693 419.416C149.879 419.387 150.066 419.358 150.253 419.329C187.723 416.899 233.997 419.162 264.695 443.47C285.759 460.15 289.576 480.148 292.251 504.744C298.109 558.613 296.495 612.759 296.421 666.848L296.167 884.867L295.997 1068.65C295.98 1105.4 297.728 1140.25 294.111 1177.02C287.296 1246.29 256.681 1267.95 191.247 1274.87C151.29 1277.71 104.067 1274.52 71.6445 1248.34C49.836 1230.73 45.6282 1203.01 43.4548 1176.3C40.1664 1135.88 41.1141 1092.23 41.151 1051.51L41.2412 858.717L40.8838 653.667C40.7188 596.189 37.3282 535.462 48.9409 479.104C58.3835 433.278 110.681 422.79 149.693 419.416Z"/><path fill="white" d="M2078.98 426.446C2080.3 426.383 2081.62 426.346 2082.95 426.335C2116.2 425.761 2159.29 430.608 2184.1 454.843C2210.86 480.981 2207.46 535.824 2208.1 571.029L2209.69 647.462C2210.74 765.846 2210.87 884.237 2210.1 1002.62C2210.03 1036.12 2210.21 1069.62 2210.65 1103.12C2211.09 1138.91 2211.98 1164.16 2206.69 1199.94C2197.07 1265.05 2145.09 1274.46 2087.51 1275.26C2048.99 1275.21 2006.52 1272.63 1975.41 1247.06C1960.85 1235.09 1961.32 1213.4 1959.48 1195.69C1953.83 1141.43 1957.27 1086.73 1957.96 1032.35L1958.9 830.255C1959.23 775.942 1958.96 721.626 1958.09 667.319C1956.85 605.447 1951.97 540.076 1962.99 478.924C1971.11 433.781 2043.39 428.447 2078.98 426.446Z"/><path fill="white" d="M150.618 27.4274C182.437 25.1332 239.941 30.009 265.215 51.5665C289.668 72.424 294.496 95.5259 297.557 126.375C300.927 160.345 301.185 228.308 279.041 256.203C259.215 281.178 218.331 289.611 188.24 292.64C148.341 295.056 100.084 290.424 67.2352 264.343C46.1426 246.595 42.3105 206.356 40.5968 180.335C34.3084 84.8498 47.2512 33.9713 150.618 27.4274Z"/><path fill="white" d="M2083.54 37.4608C2116.9 35.9479 2166.52 42.8476 2191.69 66.7489C2212.88 88.3053 2216.32 121.231 2216.89 149.229C2218.98 252.074 2184.25 274.296 2086.43 275.849C2053.68 275.851 2009.53 275.547 1982.42 251.246C1942.52 215.48 1947.7 138.783 1957.74 91.5005C1961.98 71.4992 1987.2 51.9959 2006.71 47.1489C2031.73 40.9323 2057.17 38.3583 2083.54 37.4608Z"/></svg>