<?xml version="1.0" encoding="utf-8" ?><svg xmlns="http://www.w3.org/2000/svg" xmlns:xlink="http://www.w3.org/1999/xlink" width="2048" height="2048" viewBox="0 0 2048 2048"><path fill="white" d="M1003.09 420.418C1010.23 419.373 1033.06 419.802 1040.71 420.117C1110.37 423.097 1178.04 444.175 1237.07 481.274C1326.89 538.079 1390.46 628.256 1413.77 731.948C1439.81 847.465 1414.85 948.044 1352.51 1046.57C1371.45 1064.35 1390.38 1083.98 1408.81 1102.44L1504.94 1198.6L1562.81 1256.33C1582.16 1275.65 1615.02 1303.64 1616.02 1332.11C1617.15 1364.22 1569.95 1411 1538.62 1411.22C1510.63 1411.41 1483.16 1379.84 1464.48 1361.1L1417.29 1313.75L1251.28 1147.71C1121.33 1235.19 978.853 1239.89 839.133 1173.19C823.218 1164.97 811.564 1157.52 796.727 1147.71C769.225 1175.77 741.455 1203.57 713.422 1231.11C726.431 1244.01 778.124 1288.92 777.322 1307.86C776.542 1326.27 745.558 1359.16 722.287 1339.8C701.312 1322.36 682.523 1302.04 662.598 1281.93L643.913 1300.62C663.145 1319.99 683.849 1338.33 701.071 1359.39C722.509 1385.62 679.194 1431.48 652.52 1409.06C631.482 1391.37 612.48 1371.01 593.087 1351.44C582.386 1362.51 570.466 1374.59 559.779 1385.13C524.752 1418.92 495.616 1419.92 461.217 1386.03C405.652 1331.28 438.56 1303 482.466 1259.16L531.813 1209.86C585.776 1155.68 640.369 1099.35 695.492 1046.6C655.52 985.763 631.19 923.302 625.704 850.257C617.506 744.268 651.894 639.383 721.253 558.822C795.272 472.838 890.965 428.844 1003.09 420.418ZM1044.25 1010.62C1092.66 1007.4 1143.78 999.531 1177.54 960.897C1203.85 930.899 1212.13 890.239 1214.75 851.485C1219.06 787.651 1215.76 710.313 1163.82 665.193C1122.84 629.586 1056.82 623.522 1004.43 627.414C956.218 630.604 904.178 638.807 870.428 677.016C839.843 711.756 833.31 761.109 832.039 805.792C830.417 862.811 836.108 931.444 881.637 971.644C921.376 1006.73 992.406 1014.35 1044.25 1010.62Z"/><path fill="white" d="M1015.23 1382.45C1019.21 1382.37 1023.19 1382.34 1027.17 1382.36C1189.18 1383.22 1347.08 1462.7 1465.36 1569.53C1499.9 1603.3 1477.09 1642.73 1448.65 1669.89C1418.95 1698.25 1390.56 1692.47 1361.19 1668.03C1267.18 1589.78 1159.24 1530.64 1034.85 1525.96C911.433 1524.74 804.67 1574.66 708.834 1650.46C675.418 1676.89 645.08 1709.13 603.138 1673.24C560.863 1637.07 548.734 1593.01 597.298 1555.68C617.49 1539.97 637.917 1523.02 659.348 1508.65C768.058 1431.22 881.12 1388.38 1015.23 1382.45Z"/></svg>