<?xml version="1.0" encoding="utf-8" ?><svg xmlns="http://www.w3.org/2000/svg" xmlns:xlink="http://www.w3.org/1999/xlink" width="5800" height="1880" viewBox="0 0 5800 1880"><path fill="#FEFEFE" d="M458.657 901.495C467.047 879.904 488.833 873.185 510.189 872.861C545.255 872.329 580.42 872.79 615.503 872.82L826.103 872.966L1062.96 872.774C1103.77 872.736 1145.17 872.532 1186.02 872.883C1193.24 872.945 1209.19 874.865 1215.87 877.801C1255.25 895.134 1265.69 952.514 1236.97 983.655C1219.97 1002.08 1202.26 1019.57 1184.76 1037.41L1041.41 1185.05C1029.35 1197.69 995.658 1230.88 986.946 1242.45C1064.92 1244.59 1143.95 1240.18 1221.83 1244C1262.42 1246 1267.37 1285.83 1266.35 1317.98C1264.77 1379.77 1229.88 1376.4 1182.03 1376.45L1116.79 1376.43L916.499 1376.43L639.475 1376.59L548.75 1376.63C513.953 1376.64 471.322 1382.8 446.742 1354.48C439.805 1346.48 432.775 1333 431.713 1322.49C430.483 1309.8 430.324 1300.05 434.353 1287.91C441.707 1266.39 466.326 1246.16 482.549 1229.98L539.367 1172.58C592.884 1118.34 648.886 1059.35 703.732 1006.67C687.561 1005.58 667.245 1006.14 650.617 1006.13L559.846 1006.09C532.884 1006.07 510.301 1007.9 484.105 1001.51C474.83 997.16 466.487 992.033 461.574 982.634C449.765 960.036 452.538 925.078 458.657 901.495ZM644.243 1242.25C660.739 1242.59 811.132 1243.53 814.585 1240.94C830.296 1226.65 845.516 1210.07 860.563 1194.97C923.154 1132.16 984.793 1068.64 1048.08 1006.52C998.064 1005.19 947.529 1006.8 897.47 1006.14C889.52 1006.03 881.286 1006.02 873.354 1006.25C867.318 1008.32 848.23 1030.5 842.449 1036.44C818.666 1060.62 795.064 1084.97 771.643 1109.5L684.445 1199.78C671.686 1213.12 656.095 1228.44 644.243 1242.25Z"/><path fill="#FEFEFE" d="M2590.49 1169.34C2586.63 1184.96 2583.85 1203.38 2577.43 1218.48C2548.83 1285.22 2504.09 1332.59 2437.33 1362.35C2280.22 1432.38 2090.78 1317.8 2078.78 1146.46C2076.14 1108.65 2080.79 1066.14 2095.05 1030.31C2121.67 964.455 2173.12 911.708 2238.3 883.458C2297.45 858.224 2372.3 857.752 2431.88 882.076C2492.55 906.882 2541.86 953.317 2570.25 1012.39C2574.44 1021.15 2577.7 1029.24 2580.45 1038.54C2581.86 1043.33 2583.21 1049.51 2585.23 1053.91C2593.87 1081.44 2597.14 1140.78 2590.49 1169.34ZM2345.5 1250.06C2415.49 1244.76 2467.99 1183.8 2462.86 1113.79C2457.73 1043.78 2396.9 991.132 2326.88 996.093C2256.62 1001.07 2203.75 1062.15 2208.9 1132.41C2214.05 1202.66 2275.26 1255.38 2345.5 1250.06Z"/><path fill="#FEFEFE" d="M2014.43 1289.09C2012.99 1290.79 2012.67 1292.38 2011.66 1294.28C1992.17 1330.76 1943.56 1354.45 1905.67 1367.39C1779.45 1410.47 1624.33 1336.45 1583.27 1208.31C1564.03 1148.26 1567.1 1064.42 1595.99 1008.43C1657.92 888.385 1815.29 831.558 1937.01 895.126C1960.6 907.455 2005.17 940.488 2013.7 966.793C2022.59 994.25 1981.44 1042.61 1955.51 1049.77C1934.08 1055.6 1902.25 1029.09 1883.03 1018.81C1821.52 985.903 1752.38 1007.06 1718.22 1067.66C1702.56 1106.27 1701.4 1142.55 1718.21 1181.34C1722.16 1188.06 1725.64 1195.54 1730.64 1201.64C1768.36 1247.7 1837.54 1257.76 1888.74 1229.22C1909.33 1217.75 1929.81 1191.52 1955.74 1198.13C1976.73 1203.47 2006.01 1237.45 2012.26 1256.79C2016.45 1267.78 2017.12 1277.54 2014.43 1289.09Z"/><path fill="#FEFEFE" d="M211.326 895.532C223.915 878.6 236.015 872.87 257.106 869.996C288.47 865.724 340.811 866.524 351.274 904.797C357.275 940.342 355.754 973.712 355.88 1009.77L355.767 1155.83L355.613 1262.01C355.429 1290.28 359.625 1338.85 338.932 1359.51C318.102 1380.62 265.255 1379.68 239.546 1370.59C238.804 1369.81 234.144 1367.77 232.925 1367.14C224.797 1362.93 216.32 1356.5 212.263 1348.11C207.49 1338.24 205.31 1316.77 204.942 1306.08C204.162 1283.38 204.49 1260.08 204.49 1237.4L204.514 1115.3L204.179 994.493C204.238 961.585 202.221 927.337 211.326 895.532Z"/><path fill="#FEFEFE" d="M1474.33 1350.33C1460.87 1381.25 1413.05 1378.28 1385.75 1373.47C1376.72 1371.88 1356.59 1360.1 1355.23 1351.74C1348.53 1310.68 1351.43 1265.25 1351.83 1223.54L1352.17 1107.1C1352.28 1077.45 1352.17 1047.8 1351.83 1018.15C1351.29 982.56 1348.28 934.783 1355.21 899.228C1358.68 890.227 1370.03 881.13 1378.51 878.643C1407.68 870.095 1461.19 866.305 1474.41 901.686C1480.17 915.181 1479.37 949.569 1479.73 965.402C1482.28 1078.58 1479.62 1191.83 1481.28 1305.04C1481.43 1315.01 1478.38 1342.45 1474.33 1350.33Z"/><path fill="#FEFEFE" d="M208.3 670.014C220.645 629.654 286.78 633.206 318.929 641.055C332.397 644.343 347.614 656.702 351.678 670.159C359.551 694.525 359.669 737.646 351.252 761.902C336.412 806.713 217.025 803.291 209.435 759.855C202.877 735.201 200.302 694.252 208.3 670.014Z"/><path fill="#FEFEFE" d="M1369.87 650.3C1398.82 639.004 1466.62 634.108 1478.69 672.509C1481.31 681.001 1483.42 688.154 1483.74 697.07C1484.51 718.785 1485.83 756.767 1466.85 771.906C1449.94 785.405 1416.42 784.214 1396.26 782.645C1341.63 778.392 1346.28 718.857 1350.36 679.158C1351.29 670.214 1358.58 658.094 1366.26 653.355C1368.3 652.091 1368.29 652.183 1369.87 650.3Z"/><path fill="#AD5583" fill-opacity="0.015686275" d="M351.274 904.797C360.092 906.511 362.702 912.729 362.88 921.599C365.311 1042.52 364.262 1163.57 363.811 1284.46C363.803 1286.52 369.859 1288.01 371.481 1288.39L372.846 1288.71L372.391 1289.73L367.552 1290.04C366.747 1292.22 366.855 1292.33 366.745 1294.69L364.288 1295.39L363.454 1297.01C365.696 1299.98 371.362 1300.98 371.67 1301.56C374.106 1306.1 373.662 1325.68 371.899 1329.73L370.613 1329.41C369.589 1326.63 368.543 1323.86 367.477 1321.1L363.722 1321.06C361.534 1323.87 358.566 1341.03 360.454 1344.44L365.943 1347.02L366.179 1347.7C361.863 1347.7 360.149 1346.96 357.036 1349.06C355.85 1351.98 356.049 1352.79 356.107 1355.88C352.498 1360.29 344.474 1359.59 338.932 1359.51C359.625 1338.85 355.429 1290.28 355.613 1262.01L355.767 1155.83L355.88 1009.77C355.754 973.712 357.275 940.342 351.274 904.797Z"/><path fill="#AD5583" fill-opacity="0.015686275" d="M239.546 1370.59C221.882 1371.33 213.615 1350.9 203.992 1341.41C202.425 1339.87 198.121 1338.47 197.714 1334.73C194.757 1307.56 195.616 1279.21 195.595 1251.78L197.488 1002.53C197.72 976.531 195.646 950.578 196.524 924.499C196.921 912.701 199.58 901.215 211.326 895.532C202.221 927.337 204.238 961.585 204.179 994.493L204.514 1115.3L204.49 1237.4C204.49 1260.08 204.162 1283.38 204.942 1306.08C205.31 1316.77 207.49 1338.24 212.263 1348.11C216.32 1356.5 224.797 1362.93 232.925 1367.14C234.144 1367.77 238.804 1369.81 239.546 1370.59Z"/><path fill="#D05559" fill-opacity="0.015686275" d="M1474.41 901.686C1478.32 902.609 1482.75 903.197 1484.92 906.931C1487.19 910.818 1486.39 919.257 1486.45 923.798C1487.56 1013.57 1486.49 1103.47 1486.47 1193.26C1486.47 1216.97 1488.56 1334.67 1485.09 1344C1484.13 1346.61 1482.05 1348.38 1479.44 1349.28C1477.81 1349.84 1476.02 1350.08 1474.33 1350.33C1478.38 1342.45 1481.43 1315.01 1481.28 1305.04C1479.62 1191.83 1482.28 1078.58 1479.73 965.402C1479.37 949.569 1480.17 915.181 1474.41 901.686Z"/><path fill="#D05559" fill-opacity="0.011764706" d="M1478.69 672.509L1484.55 672.629C1496.72 679.422 1492.6 739.929 1488.86 751.122C1476.49 788.179 1417.13 787.966 1386.09 782.251C1371.74 779.609 1360.29 770.723 1353.26 758.878L1352.55 757.664L1347.76 756.983C1337.7 749.918 1336.32 687.355 1343.66 677.035C1349.52 668.792 1359.8 652.55 1369.87 650.3C1368.29 652.183 1368.3 652.091 1366.26 653.355C1358.58 658.094 1351.29 670.214 1350.36 679.158C1346.28 718.857 1341.63 778.392 1396.26 782.645C1416.42 784.214 1449.94 785.405 1466.85 771.906C1485.83 756.767 1484.51 718.785 1483.74 697.07C1483.42 688.154 1481.31 681.001 1478.69 672.509Z"/><path fill="#D05559" fill-opacity="0.011764706" d="M2585.23 1053.91C2590.63 1054.6 2592.89 1056.09 2597.75 1058.46L2598.13 1059.5L2596.15 1060.9C2596.23 1065.04 2598.52 1065.08 2598.46 1066.06C2597.96 1073.8 2596.24 1080.22 2597.42 1088.04L2597.95 1088.41L2598.62 1085.18C2603.38 1108.46 2603.8 1133.74 2600.97 1157.68C2600.17 1164.45 2597.59 1168.33 2590.49 1169.34C2597.14 1140.78 2593.87 1081.44 2585.23 1053.91Z"/><path fill="#AD5583" fill-opacity="0.011764706" d="M351.678 670.159C360.605 670.91 362.38 674.202 363.514 683.745C365.821 703.157 368.67 744.369 358.355 760.943C355.289 761.583 354.383 761.698 351.252 761.902C359.669 737.646 359.551 694.525 351.678 670.159Z"/><path fill="#AD5583" fill-opacity="0.015686275" d="M209.435 759.855C204.281 759.393 199.271 759.027 198.505 751.907C195.971 728.365 191.373 696.448 200.103 673.957C201.414 670.579 205.43 670.458 208.3 670.014C200.302 694.252 202.877 735.201 209.435 759.855Z"/><path fill="#D05559" fill-opacity="0.011764706" d="M1718.21 1181.34C1701.4 1142.55 1702.56 1106.27 1718.22 1067.66C1718.88 1086.72 1718.84 1092.25 1714.4 1111.27C1713.74 1108.7 1714.09 1106.25 1714.18 1103.5C1712.55 1103.97 1712.09 1104.12 1710.45 1104.76C1710.34 1113.36 1708.72 1131.25 1714.25 1137.39C1715.07 1134.77 1715.19 1134.94 1714.38 1132.35C1719.41 1154.3 1719.05 1157.66 1718.21 1181.34Z"/><path fill="#AD5583" fill-opacity="0.015686275" d="M484.105 1001.51C469.991 1002.61 453.015 982.748 451.377 969.133C448.967 949.094 439.763 921.719 450.775 903.07C452.07 900.878 456.211 901.549 458.657 901.495C452.538 925.078 449.765 960.036 461.574 982.634C466.487 992.033 474.83 997.16 484.105 1001.51Z"/><path fill="#AD5583" fill-opacity="0.015686275" d="M431.713 1322.49C429.286 1321.21 422.68 1315.85 422.494 1313.16C422.016 1306.22 422.739 1292.77 426.559 1287.09L427.228 1289.38L428.847 1289.61C430.849 1288.15 431.867 1288.27 434.353 1287.91C430.324 1300.05 430.483 1309.8 431.713 1322.49Z"/><path fill="#D05559" fill-opacity="0.015686275" d="M2012.26 1256.79C2024.04 1258.43 2025.91 1267.62 2024.87 1278.81C2024.13 1286.77 2021.62 1287.73 2014.43 1289.09C2017.12 1277.54 2016.45 1267.78 2012.26 1256.79Z"/></svg>